<svg width="772" height="128" viewBox="0 0 772 128" fill="none" xmlns="http://www.w3.org/2000/svg">
<rect width="772" height="128" fill="#E5E5E5"/>
<rect width="772" height="128" fill="#53B32E"/>
<ellipse cx="63" cy="43.5" rx="11" ry="10.5" fill="#76E410"/>
<ellipse cx="52" cy="64.5" rx="11" ry="10.5" fill="#76E410"/>
<ellipse cx="30" cy="43.5" rx="11" ry="10.5" fill="#76E410"/>
<ellipse cx="19" cy="64.5" rx="11" ry="10.5" fill="#76E410"/>
<ellipse cx="3" cy="43.5" rx="11" ry="10.5" fill="#76E410"/>
<ellipse cx="641.055" cy="6.49957" rx="11" ry="10.5" transform="rotate(-179.699 641.055 6.49957)" fill="#76E410"/>
<ellipse cx="674.055" cy="6.67312" rx="11" ry="10.5" transform="rotate(-179.699 674.055 6.67312)" fill="#76E410"/>
<ellipse cx="701.054" cy="6.81515" rx="11" ry="10.5" transform="rotate(-179.699 701.054 6.81515)" fill="#76E410"/>
<ellipse cx="414.055" cy="-3.44229" rx="11" ry="10.5" transform="rotate(-179.699 414.055 -3.44229)" fill="#76E410"/>
<ellipse cx="440.055" cy="1.67313" rx="11" ry="10.5" transform="rotate(-179.699 440.055 1.67313)" fill="#76E410"/>
<ellipse cx="476.055" cy="-0.442286" rx="11" ry="10.5" transform="rotate(-179.699 476.055 -0.442286)" fill="#76E410"/>
<ellipse cx="502.055" cy="6.67313" rx="11" ry="10.5" transform="rotate(-179.699 502.055 6.67313)" fill="#76E410"/>
<ellipse cx="529.054" cy="6.81516" rx="11" ry="10.5" transform="rotate(-179.699 529.054 6.81516)" fill="#76E410"/>
<ellipse cx="555.055" cy="6.49958" rx="11" ry="10.5" transform="rotate(-179.699 555.055 6.49958)" fill="#76E410"/>
<ellipse cx="588.055" cy="6.67313" rx="11" ry="10.5" transform="rotate(-179.699 588.055 6.67313)" fill="#76E410"/>
<ellipse cx="615.054" cy="6.81516" rx="11" ry="10.5" transform="rotate(-179.699 615.054 6.81516)" fill="#76E410"/>
<ellipse cx="641.055" cy="6.49957" rx="11" ry="10.5" transform="rotate(-179.699 641.055 6.49957)" fill="#76E410"/>
<ellipse cx="674.055" cy="6.67312" rx="11" ry="10.5" transform="rotate(-179.699 674.055 6.67312)" fill="#76E410"/>
<ellipse cx="701.054" cy="6.81515" rx="11" ry="10.5" transform="rotate(-179.699 701.054 6.81515)" fill="#76E410"/>
<ellipse cx="641.055" cy="6.49957" rx="11" ry="10.5" transform="rotate(-179.699 641.055 6.49957)" fill="#76E410"/>
<ellipse cx="674.055" cy="6.67312" rx="11" ry="10.5" transform="rotate(-179.699 674.055 6.67312)" fill="#76E410"/>
<ellipse cx="701.054" cy="6.81515" rx="11" ry="10.5" transform="rotate(-179.699 701.054 6.81515)" fill="#76E410"/>
<ellipse cx="766" cy="6.5" rx="11" ry="10.5" fill="#76E410"/>
<ellipse cx="733" cy="6.5" rx="11" ry="10.5" fill="#76E410"/>
<ellipse cx="764" cy="29.5" rx="11" ry="10.5" fill="#76E410"/>
<ellipse cx="753" cy="50.5" rx="11" ry="10.5" fill="#76E410"/>
<ellipse cx="731" cy="29.5" rx="11" ry="10.5" fill="#76E410"/>
<ellipse cx="720" cy="50.5" rx="11" ry="10.5" fill="#76E410"/>
<ellipse cx="704" cy="29.5" rx="11" ry="10.5" fill="#76E410"/>
<ellipse cx="665" cy="27.5" rx="11" ry="10.5" fill="#76E410"/>
<ellipse cx="654" cy="48.5" rx="11" ry="10.5" fill="#76E410"/>
<ellipse cx="632" cy="27.5" rx="11" ry="10.5" fill="#76E410"/>
<ellipse cx="621" cy="48.5" rx="11" ry="10.5" fill="#76E410"/>
<ellipse cx="605" cy="27.5" rx="11" ry="10.5" fill="#76E410"/>
<ellipse cx="577" cy="27.5" rx="11" ry="10.5" fill="#76E410"/>
<ellipse cx="566" cy="48.5" rx="11" ry="10.5" fill="#76E410"/>
<ellipse cx="544" cy="27.5" rx="11" ry="10.5" fill="#76E410"/>
<ellipse cx="533" cy="48.5" rx="11" ry="10.5" fill="#76E410"/>
<ellipse cx="517" cy="27.5" rx="11" ry="10.5" fill="#76E410"/>
<ellipse cx="489" cy="27.5" rx="11" ry="10.5" fill="#76E410"/>
<ellipse cx="478" cy="48.5" rx="11" ry="10.5" fill="#76E410"/>
<ellipse cx="458" cy="19.5" rx="11" ry="10.5" fill="#76E410"/>
<ellipse cx="451" cy="45.5" rx="11" ry="10.5" fill="#76E410"/>
<ellipse cx="429" cy="27.5" rx="11" ry="10.5" fill="#76E410"/>
<ellipse cx="766" cy="69.5" rx="11" ry="10.5" fill="#76E410"/>
<ellipse cx="755" cy="90.5" rx="11" ry="10.5" fill="#76E410"/>
<ellipse cx="733" cy="69.5" rx="11" ry="10.5" fill="#76E410"/>
<ellipse cx="722" cy="90.5" rx="11" ry="10.5" fill="#76E410"/>
<ellipse cx="706" cy="69.5" rx="11" ry="10.5" fill="#76E410"/>
<ellipse cx="670" cy="69.5" rx="11" ry="10.5" fill="#76E410"/>
<ellipse cx="659" cy="90.5" rx="11" ry="10.5" fill="#76E410"/>
<ellipse cx="637" cy="69.5" rx="11" ry="10.5" fill="#76E410"/>
<ellipse cx="626" cy="90.5" rx="11" ry="10.5" fill="#76E410"/>
<ellipse cx="610" cy="69.5" rx="11" ry="10.5" fill="#76E410"/>
<ellipse cx="581" cy="69.5" rx="11" ry="10.5" fill="#76E410"/>
<ellipse cx="570" cy="90.5" rx="11" ry="10.5" fill="#76E410"/>
<ellipse cx="548" cy="69.5" rx="11" ry="10.5" fill="#76E410"/>
<ellipse cx="537" cy="90.5" rx="11" ry="10.5" fill="#76E410"/>
<ellipse cx="521" cy="69.5" rx="11" ry="10.5" fill="#76E410"/>
<ellipse cx="489" cy="69.5" rx="11" ry="10.5" fill="#76E410"/>
<ellipse cx="455" cy="90.5" rx="11" ry="10.5" fill="#76E410"/>
<ellipse cx="462" cy="69.5" rx="11" ry="10.5" fill="#76E410"/>
<ellipse cx="431" cy="90.5" rx="11" ry="10.5" fill="#76E410"/>
<ellipse cx="412" cy="71.5" rx="11" ry="10.5" fill="#76E410"/>
<ellipse cx="764" cy="111.5" rx="11" ry="10.5" fill="#76E410"/>
<ellipse cx="753" cy="132.5" rx="11" ry="10.5" fill="#76E410"/>
<ellipse cx="731" cy="111.5" rx="11" ry="10.5" fill="#76E410"/>
<ellipse cx="720" cy="132.5" rx="11" ry="10.5" fill="#76E410"/>
<ellipse cx="704" cy="111.5" rx="11" ry="10.5" fill="#76E410"/>
<ellipse cx="671" cy="111.5" rx="11" ry="10.5" fill="#76E410"/>
<ellipse cx="660" cy="132.5" rx="11" ry="10.5" fill="#76E410"/>
<ellipse cx="638" cy="111.5" rx="11" ry="10.5" fill="#76E410"/>
<ellipse cx="627" cy="132.5" rx="11" ry="10.5" fill="#76E410"/>
<ellipse cx="611" cy="111.5" rx="11" ry="10.5" fill="#76E410"/>
<ellipse cx="581" cy="111.5" rx="11" ry="10.5" fill="#76E410"/>
<ellipse cx="570" cy="132.5" rx="11" ry="10.5" fill="#76E410"/>
<ellipse cx="548" cy="111.5" rx="11" ry="10.5" fill="#76E410"/>
<ellipse cx="537" cy="132.5" rx="11" ry="10.5" fill="#76E410"/>
<ellipse cx="521" cy="111.5" rx="11" ry="10.5" fill="#76E410"/>
<ellipse cx="491" cy="111.5" rx="11" ry="10.5" fill="#76E410"/>
<ellipse cx="480" cy="132.5" rx="11" ry="10.5" fill="#76E410"/>
<ellipse cx="479" cy="92.5" rx="11" ry="10.5" fill="#76E410"/>
<ellipse cx="447" cy="132.5" rx="11" ry="10.5" fill="#76E410"/>
<ellipse cx="431" cy="111.5" rx="11" ry="10.5" fill="#76E410"/>
<ellipse cx="412" cy="132.5" rx="11" ry="10.5" fill="#76E410"/>
<ellipse cx="379" cy="132.5" rx="11" ry="10.5" fill="#76E410"/>
<ellipse cx="352" cy="132.5" rx="11" ry="10.5" fill="#76E410"/>
<ellipse cx="406" cy="92.5" rx="11" ry="10.5" fill="#76E410"/>
<ellipse cx="395" cy="113.5" rx="11" ry="10.5" fill="#76E410"/>
<ellipse cx="376" cy="90.5" rx="11" ry="10.5" fill="#76E410"/>
<ellipse cx="365" cy="111.5" rx="11" ry="10.5" fill="#76E410"/>
<ellipse cx="349" cy="90.5" rx="11" ry="10.5" fill="#76E410"/>
<ellipse cx="397" cy="41.5" rx="11" ry="10.5" fill="#76E410"/>
<ellipse cx="389" cy="63.5" rx="11" ry="10.5" fill="#76E410"/>
<ellipse cx="371" cy="42.5" rx="11" ry="10.5" fill="#76E410"/>
<ellipse cx="360" cy="63.5" rx="11" ry="10.5" fill="#76E410"/>
<ellipse cx="344" cy="42.5" rx="11" ry="10.5" fill="#76E410"/>
<ellipse cx="382" cy="-2.5" rx="11" ry="10.5" fill="#76E410"/>
<ellipse cx="371" cy="18.5" rx="11" ry="10.5" fill="#76E410"/>
<ellipse cx="349" cy="-2.5" rx="11" ry="10.5" fill="#76E410"/>
<ellipse cx="338" cy="18.5" rx="11" ry="10.5" fill="#76E410"/>
<ellipse cx="322" cy="-2.5" rx="11" ry="10.5" fill="#76E410"/>
<ellipse cx="286" cy="132.5" rx="11" ry="10.5" fill="#76E410"/>
<ellipse cx="326" cy="114.5" rx="11" ry="10.5" fill="#76E410"/>
<ellipse cx="319" cy="90.5" rx="11" ry="10.5" fill="#76E410"/>
<ellipse cx="296.553" cy="110.141" rx="11" ry="10.5" transform="rotate(-9.306 296.553 110.141)" fill="#76E410"/>
<ellipse cx="290" cy="87.5" rx="11" ry="10.5" fill="#76E410"/>
<ellipse cx="305" cy="22.5" rx="11" ry="10.5" fill="#76E410"/>
<ellipse cx="295" cy="1.5" rx="11" ry="10.5" fill="#76E410"/>
<ellipse cx="317" cy="42.5" rx="11" ry="10.5" fill="#76E410"/>
<ellipse cx="308" cy="66.5" rx="11" ry="10.5" fill="#76E410"/>
<ellipse cx="290" cy="42.5" rx="11" ry="10.5" fill="#76E410"/>
<ellipse cx="242" cy="106.5" rx="11" ry="10.5" fill="#76E410"/>
<ellipse cx="273" cy="22.5" rx="11" ry="10.5" fill="#76E410"/>
<ellipse cx="267" cy="116.5" rx="11" ry="10.5" fill="#76E410"/>
<ellipse cx="276" cy="63.5" rx="11" ry="10.5" fill="#76E410"/>
<ellipse cx="262" cy="87.5" rx="11" ry="10.5" fill="#76E410"/>
<ellipse cx="257" cy="-0.5" rx="11" ry="10.5" fill="#76E410"/>
<ellipse cx="246" cy="20.5" rx="11" ry="10.5" fill="#76E410"/>
<ellipse cx="224" cy="-0.5" rx="11" ry="10.5" fill="#76E410"/>
<ellipse cx="213" cy="20.5" rx="11" ry="10.5" fill="#76E410"/>
<ellipse cx="197" cy="-0.5" rx="11" ry="10.5" fill="#76E410"/>
<ellipse cx="257" cy="43.5" rx="11" ry="10.5" fill="#76E410"/>
<ellipse cx="246" cy="64.5" rx="11" ry="10.5" fill="#76E410"/>
<ellipse cx="224" cy="43.5" rx="11" ry="10.5" fill="#76E410"/>
<ellipse cx="213" cy="64.5" rx="11" ry="10.5" fill="#76E410"/>
<ellipse cx="197" cy="43.5" rx="11" ry="10.5" fill="#76E410"/>
<ellipse cx="230" cy="85.5" rx="11" ry="10.5" fill="#76E410"/>
<ellipse cx="230" cy="127.5" rx="11" ry="10.5" fill="#76E410"/>
<ellipse cx="208" cy="106.5" rx="11" ry="10.5" fill="#76E410"/>
<ellipse cx="197" cy="127.5" rx="11" ry="10.5" fill="#76E410"/>
<ellipse cx="181" cy="106.5" rx="11" ry="10.5" fill="#76E410"/>
<ellipse cx="145" cy="106.5" rx="11" ry="10.5" fill="#76E410"/>
<ellipse cx="134" cy="127.5" rx="11" ry="10.5" fill="#76E410"/>
<ellipse cx="112" cy="106.5" rx="11" ry="10.5" fill="#76E410"/>
<ellipse cx="101" cy="127.5" rx="11" ry="10.5" fill="#76E410"/>
<ellipse cx="85" cy="106.5" rx="11" ry="10.5" fill="#76E410"/>
<ellipse cx="137" cy="64.5" rx="11" ry="10.5" fill="#76E410"/>
<ellipse cx="126" cy="85.5" rx="11" ry="10.5" fill="#76E410"/>
<ellipse cx="104" cy="64.5" rx="11" ry="10.5" fill="#76E410"/>
<ellipse cx="93" cy="85.5" rx="11" ry="10.5" fill="#76E410"/>
<ellipse cx="77" cy="64.5" rx="11" ry="10.5" fill="#76E410"/>
<ellipse cx="137" cy="22.5" rx="11" ry="10.5" fill="#76E410"/>
<ellipse cx="126" cy="43.5" rx="11" ry="10.5" fill="#76E410"/>
<ellipse cx="104" cy="22.5" rx="11" ry="10.5" fill="#76E410"/>
<ellipse cx="93" cy="43.5" rx="11" ry="10.5" fill="#76E410"/>
<ellipse cx="77" cy="22.5" rx="11" ry="10.5" fill="#76E410"/>
<ellipse cx="66" cy="85.5" rx="11" ry="10.5" fill="#76E410"/>
<ellipse cx="55" cy="106.5" rx="11" ry="10.5" fill="#76E410"/>
<ellipse cx="33" cy="85.5" rx="11" ry="10.5" fill="#76E410"/>
<ellipse cx="22" cy="106.5" rx="11" ry="10.5" fill="#76E410"/>
<ellipse cx="6" cy="85.5" rx="11" ry="10.5" fill="#76E410"/>
<ellipse cx="38" cy="127.5" rx="11" ry="10.5" fill="#76E410"/>
<ellipse cx="333" cy="66.5" rx="11" ry="10.5" fill="#76E410"/>
<ellipse cx="5" cy="127.5" rx="11" ry="10.5" fill="#76E410"/>
<ellipse cx="38" cy="127.5" rx="11" ry="10.5" fill="#76E410"/>
<ellipse cx="197" cy="85.5" rx="11" ry="10.5" fill="#76E410"/>
<ellipse cx="5" cy="127.5" rx="11" ry="10.5" fill="#76E410"/>
<ellipse cx="38" cy="127.5" rx="11" ry="10.5" fill="#76E410"/>
<ellipse cx="181" cy="64.5" rx="11" ry="10.5" fill="#76E410"/>
<ellipse cx="5" cy="127.5" rx="11" ry="10.5" fill="#76E410"/>
<ellipse cx="404" cy="18.5" rx="11" ry="10.5" fill="#76E410"/>
<ellipse cx="38" cy="127.5" rx="11" ry="10.5" fill="#76E410"/>
<ellipse cx="159" cy="43.5" rx="11" ry="10.5" fill="#76E410"/>
<ellipse cx="5" cy="127.5" rx="11" ry="10.5" fill="#76E410"/>
<ellipse cx="594" cy="48.5" rx="11" ry="10.5" fill="#76E410"/>
<ellipse cx="38" cy="127.5" rx="11" ry="10.5" fill="#76E410"/>
<ellipse cx="159" cy="85.5" rx="11" ry="10.5" fill="#76E410"/>
<ellipse cx="5" cy="127.5" rx="11" ry="10.5" fill="#76E410"/>
<ellipse cx="684" cy="48.5" rx="11" ry="10.5" fill="#76E410"/>
<ellipse cx="38" cy="127.5" rx="11" ry="10.5" fill="#76E410"/>
<ellipse cx="162" cy="1.5" rx="11" ry="10.5" fill="#76E410"/>
<ellipse cx="5" cy="127.5" rx="11" ry="10.5" fill="#76E410"/>
<ellipse cx="688" cy="90.5" rx="11" ry="10.5" fill="#76E410"/>
<ellipse cx="38" cy="127.5" rx="11" ry="10.5" fill="#76E410"/>
<ellipse cx="126" cy="-0.5" rx="11" ry="10.5" fill="#76E410"/>
<ellipse cx="5" cy="127.5" rx="11" ry="10.5" fill="#76E410"/>
<ellipse cx="597" cy="90.5" rx="11" ry="10.5" fill="#76E410"/>
<ellipse cx="38" cy="127.5" rx="11" ry="10.5" fill="#76E410"/>
<ellipse cx="90" cy="-0.5" rx="11" ry="10.5" fill="#76E410"/>
<ellipse cx="5" cy="127.5" rx="11" ry="10.5" fill="#76E410"/>
<ellipse cx="504" cy="90.5" rx="11" ry="10.5" fill="#76E410"/>
<ellipse cx="164" cy="127.5" rx="11" ry="10.5" fill="#76E410"/>
<ellipse cx="38" cy="127.5" rx="11" ry="10.5" fill="#76E410"/>
<ellipse cx="68" cy="127.5" rx="11" ry="10.5" fill="#76E410"/>
<ellipse cx="5" cy="127.5" rx="11" ry="10.5" fill="#76E410"/>
<ellipse cx="462" cy="111.5" rx="11" ry="10.5" fill="#76E410"/>
<ellipse cx="438" cy="66.5" rx="11" ry="10.5" fill="#76E410"/>
<ellipse cx="421" cy="48.5" rx="11" ry="10.5" fill="#76E410"/>
<ellipse cx="506" cy="48.5" rx="11" ry="10.5" fill="#76E410"/>
<ellipse cx="181" cy="22.5" rx="11" ry="10.5" fill="#76E410"/>
<ellipse cx="55" cy="1.5" rx="11" ry="10.5" fill="#76E410"/>
<ellipse cx="44" cy="22.5" rx="11" ry="10.5" fill="#76E410"/>
<ellipse cx="22" cy="1.5" rx="11" ry="10.5" fill="#76E410"/>
<ellipse cx="11" cy="22.5" rx="11" ry="10.5" fill="#76E410"/>
<ellipse cx="-5" cy="1.5" rx="11" ry="10.5" fill="#76E410"/>
<ellipse cx="63" cy="43.5" rx="11" ry="10.5" fill="#76E410"/>
<ellipse cx="52" cy="64.5" rx="11" ry="10.5" fill="#76E410"/>
<ellipse cx="30" cy="43.5" rx="11" ry="10.5" fill="#76E410"/>
<ellipse cx="19" cy="64.5" rx="11" ry="10.5" fill="#76E410"/>
<ellipse cx="3" cy="43.5" rx="11" ry="10.5" fill="#76E410"/>
<ellipse cx="63" cy="43.5" rx="11" ry="10.5" fill="#76E410"/>
<ellipse cx="52" cy="64.5" rx="11" ry="10.5" fill="#76E410"/>
<ellipse cx="30" cy="43.5" rx="11" ry="10.5" fill="#76E410"/>
<ellipse cx="19" cy="64.5" rx="11" ry="10.5" fill="#76E410"/>
<ellipse cx="3" cy="43.5" rx="11" ry="10.5" fill="#76E410"/>
<ellipse cx="63" cy="43.5" rx="11" ry="10.5" fill="#76E410"/>
<ellipse cx="52" cy="64.5" rx="11" ry="10.5" fill="#76E410"/>
<ellipse cx="30" cy="43.5" rx="11" ry="10.5" fill="#76E410"/>
<ellipse cx="19" cy="64.5" rx="11" ry="10.5" fill="#76E410"/>
<ellipse cx="3" cy="43.5" rx="11" ry="10.5" fill="#76E410"/>
</svg>
